999
DXF file generated by Hxct.Dxf https://github.com/haplokuon/Hxct.Dxf, Copyright(C) 2009-2020 Daniel Carvajal, Licensed under LGPL
0
SECTION
2
HEADER
9
$ACADVER
1
AC1024
9
$DWGCODEPAGE
3
ANSI_1252
9
$LASTSAVEDBY
1
somebody
9
$HANDSEED
5
58
9
$ANGBASE
50
0.0
9
$ANGDIR
70
0
9
$ATTMODE
70
1
9
$AUNITS
70
0
9
$AUPREC
70
0
9
$CECOLOR
62
256
9
$CELTSCALE
40
1.0
9
$CELTYPE
6
ByLayer
9
$CELWEIGHT
370
-1
9
$CLAYER
8
0
9
$CMLJUST
70
0
9
$CMLSCALE
40
20.0
9
$CMLSTYLE
2
Standard
9
$DIMSTYLE
2
Standard
9
$TEXTSIZE
40
2.5
9
$TEXTSTYLE
7
Standard
9
$LUNITS
70
2
9
$LUPREC
70
4
9
$MIRRTEXT
70
0
9
$EXTNAMES
290
1
9
$INSBASE
10
0.0
20
0.0
30
0.0
9
$INSUNITS
70
4
9
$LTSCALE
40
1.0
9
$LWDISPLAY
290
0
9
$PDMODE
70
3
9
$PDSIZE
40
0.03
9
$PLINEGEN
70
0
9
$PSLTSCALE
70
1
9
$TDCREATE
40
2460811.3548686
9
$TDUCREATE
40
2460811.2298686
9
$TDUPDATE
40
2460811.3548686
9
$TDUUPDATE
40
2460811.2298686
9
$TDINDWG
40
0.0
9
$UCSORG
10
0.0
20
0.0
30
0.0
9
$UCSXDIR
10
1.0
20
0.0
30
0.0
9
$UCSYDIR
10
0.0
20
1.0
30
0.0
9
$DIMADEC
70
3
9
$DIMALT
70
0
9
$DIMALTD
70
2
9
$DIMALTF
40
25.4
9
$DIMALTRND
40
0.0
9
$DIMALTTD
70
2
9
$DIMALTTZ
70
0
9
$DIMALTU
70
2
9
$DIMALTZ
70
0
9
$DIMAPOST
1

9
$DIMATFIT
70
3
9
$DIMAUNIT
70
0
9
$DIMASZ
40
0.18
9
$DIMAZIN
70
0
9
$DIMSAH
70
0
9
$DIMBLK
1

9
$DIMLDRBLK
1

9
$DIMCEN
40
0.0
9
$DIMCLRD
70
0
9
$DIMCLRE
70
0
9
$DIMCLRT
70
0
9
$DIMDEC
70
1
9
$DIMDLE
40
0.0
9
$DIMDLI
40
0.38
9
$DIMDSEP
70
46
9
$DIMEXE
40
0.18
9
$DIMEXO
40
0.0625
9
$DIMFXLON
70
0
9
$DIMFXL
40
1.0
9
$DIMGAP
40
0.09
9
$DIMJUST
70
0
9
$DIMLFAC
40
1.0
9
$DIMLUNIT
70
2
9
$DIMLWD
70
-2
9
$DIMLWE
70
-2
9
$DIMPOST
1

9
$DIMRND
40
0.0
9
$DIMSCALE
40
1.0
9
$DIMSD1
70
0
9
$DIMSD2
70
0
9
$DIMSE1
70
0
9
$DIMSE2
70
0
9
$DIMSOXD
70
0
9
$DIMTAD
70
0
9
$DIMTDEC
70
4
9
$DIMTFAC
40
1.0
9
$DIMTIH
70
0
9
$DIMTIX
70
0
9
$DIMTM
40
0.0
9
$DIMTMOVE
70
0
9
$DIMTOFL
70
0
9
$DIMTOH
70
0
9
$DIMTOL
70
0
9
$DIMLIM
70
0
9
$DIMTOLJ
70
1
9
$DIMTP
40
0.0
9
$DIMTXT
40
0.18
9
$DIMTXTDIRECTION
70
0
9
$DIMTZIN
70
0
9
$DIMZIN
70
0
9
$DIMFRAC
70
0
9
$DIMLTYPE
6
ByBlock
9
$DIMLTEX1
6
ByBlock
9
$DIMLTEX2
6
ByBlock
0
ENDSEC
0
SECTION
2
CLASSES
0
CLASS
1
RASTERVARIABLES
2
AcDbRasterVariables
3
ISM
90
0
91
1
280
0
281
0
0
ENDSEC
0
SECTION
2
TABLES
0
TABLE
2
APPID
5
4
330
0
100
AcDbSymbolTable
0
APPID
5
18
330
4
100
AcDbSymbolTableRecord
100
AcDbRegAppTableRecord
2
ACAD
70
0
0
APPID
5
21
330
4
100
AcDbSymbolTableRecord
100
AcDbRegAppTableRecord
2
PE_URL
70
0
0
APPID
5
54
330
4
100
AcDbSymbolTableRecord
100
AcDbRegAppTableRecord
2
AcCmTransparency
70
0
0
APPID
5
55
330
4
100
AcDbSymbolTableRecord
100
AcDbRegAppTableRecord
2
GradientColor1ACI
70
0
0
APPID
5
56
330
4
100
AcDbSymbolTableRecord
100
AcDbRegAppTableRecord
2
GradientColor2ACI
70
0
0
ENDTAB
0
TABLE
2
VPORT
5
1
330
0
100
AcDbSymbolTable
0
VPORT
5
2
330
1
100
AcDbSymbolTableRecord
100
AcDbViewportTableRecord
2
*Active
70
0
10
0.0
20
0.0
11
1.0
21
1.0
12
-839.655976362875
22
-452.434215040066
13
0.0
23
0.0
14
0.5
24
0.5
15
10.0
25
10.0
16
0.0
26
0.0
36
1.0
17
0.0
27
0.0
37
0.0
40
3365.61377156528
41
1.31883141503945
75
0
76
1
0
ENDTAB
0
TABLE
2
LTYPE
5
6
330
0
100
AcDbSymbolTable
0
LTYPE
5
14
330
6
100
AcDbSymbolTableRecord
100
AcDbLinetypeTableRecord
2
Continuous
70
0
3
Solid line
72
65
73
0
40
0.0
0
LTYPE
5
15
330
6
100
AcDbSymbolTableRecord
100
AcDbLinetypeTableRecord
2
ByLayer
70
0
3

72
65
73
0
40
0.0
0
LTYPE
5
16
330
6
100
AcDbSymbolTableRecord
100
AcDbLinetypeTableRecord
2
ByBlock
70
0
3

72
65
73
0
40
0.0
0
LTYPE
5
22
330
6
100
AcDbSymbolTableRecord
100
AcDbLinetypeTableRecord
2
DOTTED
70
0
3
. . . . . .
72
65
73
2
40
50.0000007450581
49
10.0000001490116
74
0
49
-40.0000005960464
74
0
0
LTYPE
5
23
330
6
100
AcDbSymbolTableRecord
100
AcDbLinetypeTableRecord
2
DASHED
70
0
3
- - - - - -
72
65
73
2
40
200.0
49
100.0
74
0
49
-100.0
74
0
0
LTYPE
5
24
330
6
100
AcDbSymbolTableRecord
100
AcDbLinetypeTableRecord
2
DASHDOT
70
0
3
- . - . - . - . - . -
72
65
73
4
40
200.0
49
100.0
74
0
49
-50.0
74
0
49
0.0
74
0
49
-50.0
74
0
0
ENDTAB
0
TABLE
2
LAYER
5
5
330
0
100
AcDbSymbolTable
0
LAYER
5
13
330
5
100
AcDbSymbolTableRecord
100
AcDbLayerTableRecord
2
0
70
0
62
7
6
Continuous
290
1
370
-3
390
0
0
LAYER
5
25
330
5
100
AcDbSymbolTableRecord
100
AcDbLayerTableRecord
2
Control Points
70
0
62
8
6
Continuous
290
1
370
-3
390
0
0
LAYER
5
26
330
5
100
AcDbSymbolTableRecord
100
AcDbLayerTableRecord
2
Layer 0
70
0
62
8
6
Continuous
290
1
370
-3
390
0
0
LAYER
5
27
330
5
100
AcDbSymbolTableRecord
100
AcDbLayerTableRecord
2
Frames
70
0
62
253
6
Continuous
290
1
370
-3
390
0
0
LAYER
5
28
330
5
100
AcDbSymbolTableRecord
100
AcDbLayerTableRecord
2
POINT-NAME
70
0
62
7
6
Continuous
290
1
370
-3
390
0
0
ENDTAB
0
TABLE
2
STYLE
5
7
330
0
100
AcDbSymbolTable
0
STYLE
5
17
330
7
100
AcDbSymbolTableRecord
100
AcDbTextStyleTableRecord
2
Standard
3
simplex.shx
70
0
71
0
40
0.0
41
1.0
42
0.0
50
0.0
0
ENDTAB
0
TABLE
2
DIMSTYLE
5
9
330
0
100
AcDbSymbolTable
100
AcDbDimStyleTable
0
DIMSTYLE
105
19
330
9
100
AcDbSymbolTableRecord
100
AcDbDimStyleTableRecord
2
Standard
3

4

40
1.0
41
0.18
42
0.0625
43
0.38
44
0.18
45
0.0
46
0.0
47
0.0
48
0.0
49
1.0
70
0
71
0
72
0
73
0
74
0
75
0
76
0
77
0
78
0
79
0
140
0.18
141
0.0
143
25.4
144
1.0
146
1.0
147
0.09
148
0.0
170
0
171
2
172
0
174
0
175
0
176
0
177
0
178
0
179
3
271
1
272
4
273
2
274
2
275
0
276
0
277
2
278
46
279
0
280
0
281
0
282
0
283
1
284
0
285
0
286
0
289
3
290
0
294
0
340
17
173
0
345
16
346
16
347
16
371
-2
372
-2
0
ENDTAB
0
TABLE
2
VIEW
5
3
330
0
100
AcDbSymbolTable
0
ENDTAB
0
TABLE
2
UCS
5
B
330
0
100
AcDbSymbolTable
0
ENDTAB
0
TABLE
2
BLOCK_RECORD
5
C
330
0
100
AcDbSymbolTable
0
BLOCK_RECORD
5
1B
330
C
100
AcDbSymbolTableRecord
100
AcDbBlockTableRecord
2
*Model_Space
340
1F
0
BLOCK_RECORD
5
29
330
C
100
AcDbSymbolTableRecord
100
AcDbBlockTableRecord
2
POINT
340
0
70
0
280
1
281
0
1001
ACAD
1000
DesignCenter Data
1002
{
1070
1
1070
0
1002
}
0
BLOCK_RECORD
5
2E
330
C
100
AcDbSymbolTableRecord
100
AcDbBlockTableRecord
2
ARUCO-POINT
340
0
70
0
280
1
281
0
1001
ACAD
1000
DesignCenter Data
1002
{
1070
1
1070
0
1002
}
0
BLOCK_RECORD
5
36
330
C
100
AcDbSymbolTableRecord
100
AcDbBlockTableRecord
2
CONTROL-POINT
340
0
70
0
280
1
281
0
1001
ACAD
1000
DesignCenter Data
1002
{
1070
1
1070
0
1002
}
0
BLOCK_RECORD
5
4E
330
C
100
AcDbSymbolTableRecord
100
AcDbBlockTableRecord
2
*Paper_Space
340
53
0
ENDTAB
0
ENDSEC
0
SECTION
2
BLOCKS
0
BLOCK
5
1D
330
1B
100
AcDbEntity
67
0
8
0
100
AcDbBlockBegin
2
*Model_Space
70
0
10
0.0
20
0.0
30
0.0
3
*Model_Space
4

0
ENDBLK
5
1C
330
1B
100
AcDbEntity
8
0
100
AcDbBlockEnd
0
BLOCK
5
2B
330
29
100
AcDbEntity
8
0
100
AcDbBlockBegin
2
POINT
70
0
10
0.0
20
0.0
30
0.0
3
POINT
4

0
LINE
5
2C
330
29
100
AcDbEntity
8
0
62
0
6
ByLayer
370
-1
48
1.0
60
0
100
AcDbLine
10
-0.5
20
-0.5
30
0.0
11
0.5
21
0.5
31
0.0
39
0.0
210
0.0
220
0.0
230
1.0
0
LINE
5
2D
330
29
100
AcDbEntity
8
0
62
0
6
ByLayer
370
-1
48
1.0
60
0
100
AcDbLine
10
-0.5
20
0.5
30
0.0
11
0.5
21
-0.5
31
0.0
39
0.0
210
0.0
220
0.0
230
1.0
0
ENDBLK
5
2A
330
29
100
AcDbEntity
8
0
100
AcDbBlockEnd
0
BLOCK
5
30
330
2E
100
AcDbEntity
8
0
100
AcDbBlockBegin
2
ARUCO-POINT
70
0
10
0.0
20
0.0
30
0.0
3
ARUCO-POINT
4

0
LINE
5
31
330
2E
100
AcDbEntity
8
0
62
0
6
ByLayer
370
-1
48
1.0
60
0
100
AcDbLine
10
-0.5
20
-0.5
30
0.0
11
-0.5
21
0.5
31
0.0
39
0.0
210
0.0
220
0.0
230
1.0
0
LINE
5
32
330
2E
100
AcDbEntity
8
0
62
0
6
ByLayer
370
-1
48
1.0
60
0
100
AcDbLine
10
-0.5
20
0.5
30
0.0
11
0.5
21
0.5
31
0.0
39
0.0
210
0.0
220
0.0
230
1.0
0
LINE
5
33
330
2E
100
AcDbEntity
8
0
62
0
6
ByLayer
370
-1
48
1.0
60
0
100
AcDbLine
10
0.5
20
0.5
30
0.0
11
0.5
21
-0.5
31
0.0
39
0.0
210
0.0
220
0.0
230
1.0
0
LINE
5
34
330
2E
100
AcDbEntity
8
0
62
0
6
ByLayer
370
-1
48
1.0
60
0
100
AcDbLine
10
0.5
20
-0.5
30
0.0
11
-0.5
21
-0.5
31
0.0
39
0.0
210
0.0
220
0.0
230
1.0
0
LINE
5
35
330
2E
100
AcDbEntity
8
0
62
0
6
ByLayer
370
-1
48
1.0
60
0
100
AcDbLine
10
-0.5
20
-0.5
30
0.0
11
-0.5
21
-0.5
31
0.0
39
0.0
210
0.0
220
0.0
230
1.0
0
ENDBLK
5
2F
330
2E
100
AcDbEntity
8
0
100
AcDbBlockEnd
0
BLOCK
5
38
330
36
100
AcDbEntity
8
0
100
AcDbBlockBegin
2
CONTROL-POINT
70
0
10
0.0
20
0.0
30
0.0
3
CONTROL-POINT
4

0
LINE
5
39
330
36
100
AcDbEntity
8
0
62
0
6
ByLayer
370
-1
48
1.0
60
0
100
AcDbLine
10
-0.5
20
-0.5
30
0.0
11
0.5
21
-0.5
31
0.0
39
0.0
210
0.0
220
0.0
230
1.0
0
LINE
5
3A
330
36
100
AcDbEntity
8
0
62
0
6
ByLayer
370
-1
48
1.0
60
0
100
AcDbLine
10
0.5
20
-0.5
30
0.0
11
0.0
21
0.5
31
0.0
39
0.0
210
0.0
220
0.0
230
1.0
0
LINE
5
3B
330
36
100
AcDbEntity
8
0
62
0
6
ByLayer
370
-1
48
1.0
60
0
100
AcDbLine
10
0.0
20
0.5
30
0.0
11
-0.5
21
-0.5
31
0.0
39
0.0
210
0.0
220
0.0
230
1.0
0
LINE
5
3C
330
36
100
AcDbEntity
8
0
62
0
6
ByLayer
370
-1
48
1.0
60
0
100
AcDbLine
10
-0.5
20
-0.5
30
0.0
11
-0.5
21
-0.5
31
0.0
39
0.0
210
0.0
220
0.0
230
1.0
0
ENDBLK
5
37
330
36
100
AcDbEntity
8
0
100
AcDbBlockEnd
0
BLOCK
5
50
330
4E
100
AcDbEntity
67
1
8
0
100
AcDbBlockBegin
2
*Paper_Space
70
0
10
0.0
20
0.0
30
0.0
3
*Paper_Space
4

0
ENDBLK
5
4F
330
4E
100
AcDbEntity
8
0
100
AcDbBlockEnd
0
ENDSEC
0
SECTION
2
ENTITIES
0
POINT
5
3D
330
1B
100
AcDbEntity
67
0
8
Layer 0
62
256
6
Continuous
370
-1
48
1.0
60
0
100
AcDbPoint
10
0.0
20
0.0
30
0.0
39
0.0
210
0.0
220
0.0
230
1.0
50
360.0
0
TEXT
5
3E
330
1B
100
AcDbEntity
67
0
8
POINT-NAME
62
256
6
Continuous
370
-1
48
1.0
60
0
100
AcDbText
1
P_001
10
0.0
20
12.5000001862645
30
0.0
40
25.000000372529
41
1.0
50
0.0
51
0.0
7
Standard
11
0.0
21
12.5000001862645
31
0.0
210
0.0
220
0.0
230
1.0
71
0
72
0
100
AcDbText
73
0
0
POINT
5
3F
330
1B
100
AcDbEntity
67
0
8
Layer 0
62
256
6
Continuous
370
-1
48
1.0
60
0
100
AcDbPoint
10
105.635041669263
20
0.0
30
0.0
39
0.0
210
0.0
220
0.0
230
1.0
50
360.0
0
TEXT
5
40
330
1B
100
AcDbEntity
67
0
8
POINT-NAME
62
256
6
Continuous
370
-1
48
1.0
60
0
100
AcDbText
1
P_002
10
105.635041669263
20
12.5000001862645
30
0.0
40
25.000000372529
41
1.0
50
0.0
51
0.0
7
Standard
11
105.635041669263
21
12.5000001862645
31
0.0
210
0.0
220
0.0
230
1.0
71
0
72
0
100
AcDbText
73
0
0
POINT
5
41
330
1B
100
AcDbEntity
67
0
8
Layer 0
62
256
6
Continuous
370
-1
48
1.0
60
0
100
AcDbPoint
10
-249.052638804287
20
-126.098431709024
30
0.0
39
0.0
210
0.0
220
0.0
230
1.0
50
360.0
0
TEXT
5
42
330
1B
100
AcDbEntity
67
0
8
POINT-NAME
62
256
6
Continuous
370
-1
48
1.0
60
0
100
AcDbText
1
P_034
10
-249.052638804287
20
-113.598431522759
30
0.0
40
25.000000372529
41
1.0
50
0.0
51
0.0
7
Standard
11
-249.052638804287
21
-113.598431522759
31
0.0
210
0.0
220
0.0
230
1.0
71
0
72
0
100
AcDbText
73
0
0
LWPOLYLINE
5
43
330
1B
100
AcDbEntity
67
0
8
Layer 0
62
256
6
Continuous
370
-1
48
1.0
60
0
100
AcDbPolyline
90
16
70
0
38
0.0
39
0.0
10
297.120829359809
20
-760.107083306496
40
0.0
41
0.0
42
0.0
10
415.92557993767
20
-440.843836323267
40
0.0
41
0.0
42
0.0
10
350.457964039395
20
-368.603666270155
40
0.0
41
0.0
42
0.0
10
-1358.05251283885
20
262.658196276156
40
0.0
41
0.0
42
0.0
10
-1488.72430479147
20
199.423301270341
40
0.0
41
0.0
42
0.0
10
-2035.28164183965
20
-1284.65185430565
40
0.0
41
0.0
42
0.0
10
-2046.10396057526
20
-1393.08575257586
40
0.0
41
0.0
42
0.0
10
-1519.70936506032
20
-1585.18671125425
40
0.0
41
0.0
42
0.0
10
-1512.35623174227
20
-1585.21962768604
40
0.0
41
0.0
42
0.0
10
-1506.8380887632
20
-1570.31961645897
40
0.0
41
0.0
42
0.0
10
-1502.55779886024
20
-1566.2552464245
40
0.0
41
0.0
42
0.0
10
-1494.06686304431
20
-1569.41290369917
40
0.0
41
0.0
42
0.0
10
-1492.73532845263
20
-1584.90207963478
40
0.0
41
0.0
42
0.0
10
-1625.67247717646
20
-1947.04360817332
40
0.0
41
0.0
42
0.0
10
-1656.92465349613
20
-1960.24109970512
40
0.0
41
0.0
42
0.0
10
-2716.29938441758
20
-1572.33727698017
40
0.0
41
0.0
42
0.0
210
0.0
220
0.0
230
1.0
0
LWPOLYLINE
5
44
330
1B
100
AcDbEntity
67
0
8
Layer 0
62
256
6
Continuous
370
-1
48
1.0
60
0
100
AcDbPolyline
90
11
70
0
38
0.0
39
0.0
10
-2883.99456166014
20
-1885.92529883468
40
0.0
41
0.0
42
0.0
10
-2577.10352885971
20
-1039.88178656144
40
0.0
41
0.0
42
0.0
10
-2208.42173070863
20
-28.7797370110863
40
0.0
41
0.0
42
0.0
10
-1813.68450156118
20
1045.96297839327
40
0.0
41
0.0
42
0.0
10
-1802.55952419418
20
1055.37266962499
40
0.0
41
0.0
42
0.0
10
-983.518288238246
20
759.041103925762
40
0.0
41
0.0
42
0.0
10
246.781854348087
20
301.203116498139
40
0.0
41
0.0
42
0.0
10
1191.53427438396
20
-43.6403962909246
40
0.0
41
0.0
42
0.0
10
1204.68260893439
20
-59.7817863042108
40
0.0
41
0.0
42
0.0
10
1010.51491736003
20
-574.988439298782
40
0.0
41
0.0
42
0.0
10
866.416321697996
20
-958.183761329182
40
0.0
41
0.0
42
0.0
210
0.0
220
0.0
230
1.0
0
LINE
5
45
330
1B
100
AcDbEntity
67
0
8
Layer 0
62
256
6
Continuous
370
-1
48
1.0
60
0
100
AcDbLine
10
827.040105016129
20
-968.577868401712
30
0.0
11
282.611785750866
21
-766.269470926383
31
0.0
39
0.0
210
0.0
220
0.0
230
1.0
0
LINE
5
46
330
1B
100
AcDbEntity
67
0
8
Layer 0
62
256
6
Continuous
370
-1
48
1.0
60
0
100
AcDbLine
10
269.580221769728
20
-764.122211192853
30
0.0
11
265.331012689252
21
-774.912095608486
31
0.0
39
0.0
210
0.0
220
0.0
230
1.0
0
LWPOLYLINE
5
47
330
1B
100
AcDbEntity
67
0
8
Layer 0
62
256
6
Continuous
370
-1
48
1.0
60
0
100
AcDbPolyline
90
6
70
0
38
0.0
39
0.0
10
-219.529490578319
20
-106.399142186008
40
0.0
41
0.0
42
0.0
10
-53.8702990280968
20
343.172722899124
40
0.0
41
0.0
42
0.0
10
-81.6595983070914
20
403.959162178882
40
0.0
41
0.0
42
0.0
10
-692.008866829271
20
628.40307353704
40
0.0
41
0.0
42
0.0
10
-739.635395287918
20
609.973819845492
40
0.0
41
0.0
42
0.0
10
-830.732258609878
20
363.217722933079
40
0.0
41
0.0
42
0.0
210
0.0
220
0.0
230
1.0
0
LINE
5
48
330
1B
100
AcDbEntity
67
0
8
Layer 0
62
256
6
Continuous
370
-1
48
1.0
60
0
100
AcDbLine
10
-1761.32644996467
20
-486.118188092963
30
0.0
11
-1527.94768082667
21
147.091228254545
31
0.0
39
0.0
210
0.0
220
0.0
230
1.0
0
LINE
5
49
330
1B
100
AcDbEntity
67
0
8
Layer 0
62
256
6
Continuous
370
-1
48
1.0
60
0
100
AcDbLine
10
-1531.47545118614
20
206.68373000355
30
0.0
11
-2003.84661822028
21
381.044019332733
31
0.0
39
0.0
210
0.0
220
0.0
230
1.0
0
LINE
5
4A
330
1B
100
AcDbEntity
67
0
8
Layer 0
62
256
6
Continuous
370
-1
48
1.0
60
0
100
AcDbLine
10
-2045.60124069827
20
345.961166753934
30
0.0
11
-2281.26126558489
21
-296.163268688897
31
0.0
39
0.0
210
0.0
220
0.0
230
1.0
0
LINE
5
4B
330
1B
100
AcDbEntity
67
0
8
Layer 0
62
256
6
Continuous
370
-1
48
1.0
60
0
100
AcDbLine
10
-2272.85666331454
20
-335.874723101875
30
0.0
11
-1806.33167659361
21
-507.806798095314
31
0.0
39
0.0
210
0.0
220
0.0
230
1.0
0
LWPOLYLINE
5
4C
330
1B
100
AcDbEntity
67
0
8
Frames
62
256
6
Continuous
370
-1
48
1.0
60
0
100
AcDbPolyline
90
4
70
1
38
0.0
39
0.0
10
-2958.99456277773
20
-2035.2411008227
40
0.0
41
0.0
42
0.0
10
1279.68261005198
20
-2035.2411008227
40
0.0
41
0.0
42
0.0
10
1279.68261005198
20
1130.37267074257
40
0.0
41
0.0
42
0.0
10
-2958.99456277773
20
1130.37267074257
40
0.0
41
0.0
42
0.0
210
0.0
220
0.0
230
1.0
0
TEXT
5
4D
330
1B
100
AcDbEntity
67
0
8
Frames
62
256
6
Continuous
370
-1
48
1.0
60
0
100
AcDbText
1
Horizontal Plane 1
10
-2958.99456277773
20
1130.37267074257
30
0.0
40
25.000000372529
41
1.0
50
0.0
51
0.0
7
Standard
11
-2958.99456277773
21
1130.37267074257
31
0.0
210
0.0
220
0.0
230
1.0
71
0
72
0
100
AcDbText
73
0
0
VIEWPORT
5
52
330
4E
100
AcDbEntity
67
1
8
0
62
256
6
ByLayer
370
-1
48
1.0
60
0
100
AcDbViewport
10
0.0
20
0.0
30
0.0
40
297.0
41
210.0
68
1
69
1
12
50.0
22
100.0
13
0.0
23
0.0
14
10.0
24
10.0
15
10.0
25
10.0
16
0.0
26
0.0
36
1.0
17
0.0
27
0.0
37
0.0
42
50.0
43
0.0
44
0.0
45
250.0
50
0.0
51
0.0
72
1000
90
819232
110
0.0
120
0.0
130
0.0
111
1.0
121
0.0
131
0.0
112
0.0
122
1.0
132
0.0
0
ENDSEC
0
SECTION
2
OBJECTS
0
DICTIONARY
5
57
330
0
100
AcDbDictionary
280
0
281
1
3
ACAD_GROUP
350
11
3
ACAD_LAYOUT
350
51
3
ACAD_MLINESTYLE
350
A
3
ACAD_IMAGE_DICT
350
D
3
ACAD_IMAGE_VARS
350
20
0
DICTIONARY
5
11
330
57
100
AcDbDictionary
280
0
281
1
0
DICTIONARY
5
51
330
57
100
AcDbDictionary
280
0
281
1
3
Model
350
1F
3
Layout1
350
53
0
DICTIONARY
5
A
330
57
100
AcDbDictionary
280
0
281
1
3
Standard
350
1A
0
DICTIONARY
5
D
330
57
100
AcDbDictionary
280
0
281
1
0
LAYOUT
5
1F
330
51
100
AcDbPlotSettings
1

2
none_device
4
ISO_A4_(210.00_x_297.00_MM)
6

40
7.5
41
20.0
42
7.5
43
20.0
44
210.0
45
297.0
46
0.0
47
0.0
48
0.0
49
0.0
140
0.0
141
0.0
142
1.0
143
1.0
70
11952
72
1
73
1
74
1
7

75
0
76
0
77
2
78
300
147
1.0
148
0.0
149
0.0
100
AcDbLayout
1
Model
71
0
10
-20.0
20
-7.5
11
277.0
21
202.5
12
0.0
22
0.0
32
0.0
14
25.7
24
19.5
34
0.0
15
231.3
25
175.5
35
0.0
146
0.0
13
0.0
23
0.0
33
0.0
16
1.0
26
0.0
36
0.0
17
0.0
27
1.0
37
0.0
76
0
330
1B
0
LAYOUT
5
53
330
51
100
AcDbPlotSettings
1

2
none_device
4
ISO_A4_(210.00_x_297.00_MM)
6

40
7.5
41
20.0
42
7.5
43
20.0
44
210.0
45
297.0
46
0.0
47
0.0
48
0.0
49
0.0
140
0.0
141
0.0
142
1.0
143
1.0
70
688
72
1
73
1
74
1
7

75
0
76
0
77
2
78
300
147
1.0
148
0.0
149
0.0
100
AcDbLayout
1
Layout1
71
1
10
-20.0
20
-7.5
11
277.0
21
202.5
12
0.0
22
0.0
32
0.0
14
25.7
24
19.5
34
0.0
15
231.3
25
175.5
35
0.0
146
0.0
13
0.0
23
0.0
33
0.0
16
1.0
26
0.0
36
0.0
17
0.0
27
1.0
37
0.0
76
0
330
4E
0
MLINESTYLE
5
1A
330
A
100
AcDbMlineStyle
2
Standard
70
0
3

62
256
51
90.0
52
90.0
71
2
49
0.5
62
256
6
ByLayer
49
-0.5
62
256
6
ByLayer
0
RASTERVARIABLES
5
20
330
D
100
AcDbRasterVariables
90
0
70
1
71
1
72
0
0
ENDSEC
0
EOF
