999
DXF file generated by Hxct.Dxf https://github.com/haplokuon/Hxct.Dxf, Copyright(C) 2009-2020 Daniel Carvajal, Licensed under LGPL
0
SECTION
2
HEADER
9
$ACADVER
1
AC1024
9
$DWGCODEPAGE
3
ANSI_1252
9
$LASTSAVEDBY
1
somebody
9
$HANDSEED
5
56
9
$ANGBASE
50
0.0
9
$ANGDIR
70
0
9
$ATTMODE
70
1
9
$AUNITS
70
0
9
$AUPREC
70
0
9
$CECOLOR
62
256
9
$CELTSCALE
40
1.0
9
$CELTYPE
6
ByLayer
9
$CELWEIGHT
370
-1
9
$CLAYER
8
0
9
$CMLJUST
70
0
9
$CMLSCALE
40
20.0
9
$CMLSTYLE
2
Standard
9
$DIMSTYLE
2
Standard
9
$TEXTSIZE
40
2.5
9
$TEXTSTYLE
7
Standard
9
$LUNITS
70
2
9
$LUPREC
70
4
9
$MIRRTEXT
70
0
9
$EXTNAMES
290
1
9
$INSBASE
10
0.0
20
0.0
30
0.0
9
$INSUNITS
70
4
9
$LTSCALE
40
1.0
9
$LWDISPLAY
290
0
9
$PDMODE
70
3
9
$PDSIZE
40
0.03
9
$PLINEGEN
70
0
9
$PSLTSCALE
70
1
9
$TDCREATE
40
2460874.35228128
9
$TDUCREATE
40
2460874.22728128
9
$TDUPDATE
40
2460874.35228128
9
$TDUUPDATE
40
2460874.22728128
9
$TDINDWG
40
0.0
9
$UCSORG
10
0.0
20
0.0
30
0.0
9
$UCSXDIR
10
1.0
20
0.0
30
0.0
9
$UCSYDIR
10
0.0
20
1.0
30
0.0
9
$DIMADEC
70
3
9
$DIMALT
70
0
9
$DIMALTD
70
2
9
$DIMALTF
40
25.4
9
$DIMALTRND
40
0.0
9
$DIMALTTD
70
2
9
$DIMALTTZ
70
0
9
$DIMALTU
70
2
9
$DIMALTZ
70
0
9
$DIMAPOST
1

9
$DIMATFIT
70
3
9
$DIMAUNIT
70
0
9
$DIMASZ
40
0.18
9
$DIMAZIN
70
0
9
$DIMSAH
70
0
9
$DIMBLK
1

9
$DIMLDRBLK
1

9
$DIMCEN
40
0.0
9
$DIMCLRD
70
0
9
$DIMCLRE
70
0
9
$DIMCLRT
70
0
9
$DIMDEC
70
1
9
$DIMDLE
40
0.0
9
$DIMDLI
40
0.38
9
$DIMDSEP
70
46
9
$DIMEXE
40
0.18
9
$DIMEXO
40
0.0625
9
$DIMFXLON
70
0
9
$DIMFXL
40
1.0
9
$DIMGAP
40
0.09
9
$DIMJUST
70
0
9
$DIMLFAC
40
1.0
9
$DIMLUNIT
70
2
9
$DIMLWD
70
-2
9
$DIMLWE
70
-2
9
$DIMPOST
1

9
$DIMRND
40
0.0
9
$DIMSCALE
40
1.0
9
$DIMSD1
70
0
9
$DIMSD2
70
0
9
$DIMSE1
70
0
9
$DIMSE2
70
0
9
$DIMSOXD
70
0
9
$DIMTAD
70
0
9
$DIMTDEC
70
4
9
$DIMTFAC
40
1.0
9
$DIMTIH
70
0
9
$DIMTIX
70
0
9
$DIMTM
40
0.0
9
$DIMTMOVE
70
0
9
$DIMTOFL
70
0
9
$DIMTOH
70
0
9
$DIMTOL
70
0
9
$DIMLIM
70
0
9
$DIMTOLJ
70
1
9
$DIMTP
40
0.0
9
$DIMTXT
40
0.18
9
$DIMTXTDIRECTION
70
0
9
$DIMTZIN
70
0
9
$DIMZIN
70
0
9
$DIMFRAC
70
0
9
$DIMLTYPE
6
ByBlock
9
$DIMLTEX1
6
ByBlock
9
$DIMLTEX2
6
ByBlock
0
ENDSEC
0
SECTION
2
CLASSES
0
CLASS
1
RASTERVARIABLES
2
AcDbRasterVariables
3
ISM
90
0
91
1
280
0
281
0
0
ENDSEC
0
SECTION
2
TABLES
0
TABLE
2
APPID
5
4
330
0
100
AcDbSymbolTable
0
APPID
5
18
330
4
100
AcDbSymbolTableRecord
100
AcDbRegAppTableRecord
2
ACAD
70
0
0
APPID
5
21
330
4
100
AcDbSymbolTableRecord
100
AcDbRegAppTableRecord
2
PE_URL
70
0
0
APPID
5
52
330
4
100
AcDbSymbolTableRecord
100
AcDbRegAppTableRecord
2
AcCmTransparency
70
0
0
APPID
5
53
330
4
100
AcDbSymbolTableRecord
100
AcDbRegAppTableRecord
2
GradientColor1ACI
70
0
0
APPID
5
54
330
4
100
AcDbSymbolTableRecord
100
AcDbRegAppTableRecord
2
GradientColor2ACI
70
0
0
ENDTAB
0
TABLE
2
VPORT
5
1
330
0
100
AcDbSymbolTable
0
VPORT
5
2
330
1
100
AcDbSymbolTableRecord
100
AcDbViewportTableRecord
2
*Active
70
0
10
0.0
20
0.0
11
1.0
21
1.0
12
438.123745991335
22
-892.387649907462
13
0.0
23
0.0
14
0.5
24
0.5
15
10.0
25
10.0
16
0.0
26
0.0
36
1.0
17
0.0
27
0.0
37
0.0
40
2521.46113872924
41
1.35008563040785
75
0
76
1
0
ENDTAB
0
TABLE
2
LTYPE
5
6
330
0
100
AcDbSymbolTable
0
LTYPE
5
14
330
6
100
AcDbSymbolTableRecord
100
AcDbLinetypeTableRecord
2
Continuous
70
0
3
Solid line
72
65
73
0
40
0.0
0
LTYPE
5
15
330
6
100
AcDbSymbolTableRecord
100
AcDbLinetypeTableRecord
2
ByLayer
70
0
3

72
65
73
0
40
0.0
0
LTYPE
5
16
330
6
100
AcDbSymbolTableRecord
100
AcDbLinetypeTableRecord
2
ByBlock
70
0
3

72
65
73
0
40
0.0
0
LTYPE
5
22
330
6
100
AcDbSymbolTableRecord
100
AcDbLinetypeTableRecord
2
DOTTED
70
0
3
. . . . . .
72
65
73
2
40
50.0000007450581
49
10.0000001490116
74
0
49
-40.0000005960464
74
0
0
LTYPE
5
23
330
6
100
AcDbSymbolTableRecord
100
AcDbLinetypeTableRecord
2
DASHED
70
0
3
- - - - - -
72
65
73
2
40
200.0
49
100.0
74
0
49
-100.0
74
0
0
LTYPE
5
24
330
6
100
AcDbSymbolTableRecord
100
AcDbLinetypeTableRecord
2
DASHDOT
70
0
3
- . - . - . - . - . -
72
65
73
4
40
200.0
49
100.0
74
0
49
-50.0
74
0
49
0.0
74
0
49
-50.0
74
0
0
ENDTAB
0
TABLE
2
LAYER
5
5
330
0
100
AcDbSymbolTable
0
LAYER
5
13
330
5
100
AcDbSymbolTableRecord
100
AcDbLayerTableRecord
2
0
70
0
62
7
6
Continuous
290
1
370
-3
390
0
0
LAYER
5
25
330
5
100
AcDbSymbolTableRecord
100
AcDbLayerTableRecord
2
Control Points
70
0
62
8
6
Continuous
290
1
370
-3
390
0
0
LAYER
5
26
330
5
100
AcDbSymbolTableRecord
100
AcDbLayerTableRecord
2
Layer 0
70
0
62
8
6
Continuous
290
1
370
-3
390
0
0
LAYER
5
27
330
5
100
AcDbSymbolTableRecord
100
AcDbLayerTableRecord
2
Layer 1
70
0
62
72
6
Continuous
290
1
370
-3
390
0
0
LAYER
5
28
330
5
100
AcDbSymbolTableRecord
100
AcDbLayerTableRecord
2
Layer 2
70
0
62
12
6
Continuous
290
1
370
-3
390
0
0
LAYER
5
29
330
5
100
AcDbSymbolTableRecord
100
AcDbLayerTableRecord
2
Layer 3
70
0
62
152
6
Continuous
290
1
370
-3
390
0
0
LAYER
5
2A
330
5
100
AcDbSymbolTableRecord
100
AcDbLayerTableRecord
2
Layer 4
70
0
62
40
6
Continuous
290
1
370
-3
390
0
0
LAYER
5
2B
330
5
100
AcDbSymbolTableRecord
100
AcDbLayerTableRecord
2
Layer 5
70
0
62
202
6
Continuous
290
1
370
-3
390
0
0
LAYER
5
2C
330
5
100
AcDbSymbolTableRecord
100
AcDbLayerTableRecord
2
Layer 6
70
0
62
30
6
Continuous
290
1
370
-3
390
0
0
LAYER
5
2D
330
5
100
AcDbSymbolTableRecord
100
AcDbLayerTableRecord
2
Frames
70
0
62
253
6
Continuous
290
1
370
-3
390
0
0
LAYER
5
2E
330
5
100
AcDbSymbolTableRecord
100
AcDbLayerTableRecord
2
POINT-NAME
70
0
62
7
6
Continuous
290
1
370
-3
390
0
0
ENDTAB
0
TABLE
2
STYLE
5
7
330
0
100
AcDbSymbolTable
0
STYLE
5
17
330
7
100
AcDbSymbolTableRecord
100
AcDbTextStyleTableRecord
2
Standard
3
simplex.shx
70
0
71
0
40
0.0
41
1.0
42
0.0
50
0.0
0
ENDTAB
0
TABLE
2
DIMSTYLE
5
9
330
0
100
AcDbSymbolTable
100
AcDbDimStyleTable
0
DIMSTYLE
105
19
330
9
100
AcDbSymbolTableRecord
100
AcDbDimStyleTableRecord
2
Standard
3

4

40
1.0
41
0.18
42
0.0625
43
0.38
44
0.18
45
0.0
46
0.0
47
0.0
48
0.0
49
1.0
70
0
71
0
72
0
73
0
74
0
75
0
76
0
77
0
78
0
79
0
140
0.18
141
0.0
143
25.4
144
1.0
146
1.0
147
0.09
148
0.0
170
0
171
2
172
0
174
0
175
0
176
0
177
0
178
0
179
3
271
1
272
4
273
2
274
2
275
0
276
0
277
2
278
46
279
0
280
0
281
0
282
0
283
1
284
0
285
0
286
0
289
3
290
0
294
0
340
17
173
0
345
16
346
16
347
16
371
-2
372
-2
0
ENDTAB
0
TABLE
2
VIEW
5
3
330
0
100
AcDbSymbolTable
0
ENDTAB
0
TABLE
2
UCS
5
B
330
0
100
AcDbSymbolTable
0
ENDTAB
0
TABLE
2
BLOCK_RECORD
5
C
330
0
100
AcDbSymbolTable
0
BLOCK_RECORD
5
1B
330
C
100
AcDbSymbolTableRecord
100
AcDbBlockTableRecord
2
*Model_Space
340
1F
0
BLOCK_RECORD
5
2F
330
C
100
AcDbSymbolTableRecord
100
AcDbBlockTableRecord
2
POINT
340
0
70
0
280
1
281
0
1001
ACAD
1000
DesignCenter Data
1002
{
1070
1
1070
0
1002
}
0
BLOCK_RECORD
5
34
330
C
100
AcDbSymbolTableRecord
100
AcDbBlockTableRecord
2
ARUCO-POINT
340
0
70
0
280
1
281
0
1001
ACAD
1000
DesignCenter Data
1002
{
1070
1
1070
0
1002
}
0
BLOCK_RECORD
5
3C
330
C
100
AcDbSymbolTableRecord
100
AcDbBlockTableRecord
2
CONTROL-POINT
340
0
70
0
280
1
281
0
1001
ACAD
1000
DesignCenter Data
1002
{
1070
1
1070
0
1002
}
0
BLOCK_RECORD
5
4C
330
C
100
AcDbSymbolTableRecord
100
AcDbBlockTableRecord
2
*Paper_Space
340
51
0
ENDTAB
0
ENDSEC
0
SECTION
2
BLOCKS
0
BLOCK
5
1D
330
1B
100
AcDbEntity
67
0
8
0
100
AcDbBlockBegin
2
*Model_Space
70
0
10
0.0
20
0.0
30
0.0
3
*Model_Space
4

0
ENDBLK
5
1C
330
1B
100
AcDbEntity
8
0
100
AcDbBlockEnd
0
BLOCK
5
31
330
2F
100
AcDbEntity
8
0
100
AcDbBlockBegin
2
POINT
70
0
10
0.0
20
0.0
30
0.0
3
POINT
4

0
LINE
5
32
330
2F
100
AcDbEntity
8
0
62
0
6
ByLayer
370
-1
48
1.0
60
0
100
AcDbLine
10
-0.5
20
-0.5
30
0.0
11
0.5
21
0.5
31
0.0
39
0.0
210
0.0
220
0.0
230
1.0
0
LINE
5
33
330
2F
100
AcDbEntity
8
0
62
0
6
ByLayer
370
-1
48
1.0
60
0
100
AcDbLine
10
-0.5
20
0.5
30
0.0
11
0.5
21
-0.5
31
0.0
39
0.0
210
0.0
220
0.0
230
1.0
0
ENDBLK
5
30
330
2F
100
AcDbEntity
8
0
100
AcDbBlockEnd
0
BLOCK
5
36
330
34
100
AcDbEntity
8
0
100
AcDbBlockBegin
2
ARUCO-POINT
70
0
10
0.0
20
0.0
30
0.0
3
ARUCO-POINT
4

0
LINE
5
37
330
34
100
AcDbEntity
8
0
62
0
6
ByLayer
370
-1
48
1.0
60
0
100
AcDbLine
10
-0.5
20
-0.5
30
0.0
11
-0.5
21
0.5
31
0.0
39
0.0
210
0.0
220
0.0
230
1.0
0
LINE
5
38
330
34
100
AcDbEntity
8
0
62
0
6
ByLayer
370
-1
48
1.0
60
0
100
AcDbLine
10
-0.5
20
0.5
30
0.0
11
0.5
21
0.5
31
0.0
39
0.0
210
0.0
220
0.0
230
1.0
0
LINE
5
39
330
34
100
AcDbEntity
8
0
62
0
6
ByLayer
370
-1
48
1.0
60
0
100
AcDbLine
10
0.5
20
0.5
30
0.0
11
0.5
21
-0.5
31
0.0
39
0.0
210
0.0
220
0.0
230
1.0
0
LINE
5
3A
330
34
100
AcDbEntity
8
0
62
0
6
ByLayer
370
-1
48
1.0
60
0
100
AcDbLine
10
0.5
20
-0.5
30
0.0
11
-0.5
21
-0.5
31
0.0
39
0.0
210
0.0
220
0.0
230
1.0
0
LINE
5
3B
330
34
100
AcDbEntity
8
0
62
0
6
ByLayer
370
-1
48
1.0
60
0
100
AcDbLine
10
-0.5
20
-0.5
30
0.0
11
-0.5
21
-0.5
31
0.0
39
0.0
210
0.0
220
0.0
230
1.0
0
ENDBLK
5
35
330
34
100
AcDbEntity
8
0
100
AcDbBlockEnd
0
BLOCK
5
3E
330
3C
100
AcDbEntity
8
0
100
AcDbBlockBegin
2
CONTROL-POINT
70
0
10
0.0
20
0.0
30
0.0
3
CONTROL-POINT
4

0
LINE
5
3F
330
3C
100
AcDbEntity
8
0
62
0
6
ByLayer
370
-1
48
1.0
60
0
100
AcDbLine
10
-0.5
20
-0.5
30
0.0
11
0.5
21
-0.5
31
0.0
39
0.0
210
0.0
220
0.0
230
1.0
0
LINE
5
40
330
3C
100
AcDbEntity
8
0
62
0
6
ByLayer
370
-1
48
1.0
60
0
100
AcDbLine
10
0.5
20
-0.5
30
0.0
11
0.0
21
0.5
31
0.0
39
0.0
210
0.0
220
0.0
230
1.0
0
LINE
5
41
330
3C
100
AcDbEntity
8
0
62
0
6
ByLayer
370
-1
48
1.0
60
0
100
AcDbLine
10
0.0
20
0.5
30
0.0
11
-0.5
21
-0.5
31
0.0
39
0.0
210
0.0
220
0.0
230
1.0
0
LINE
5
42
330
3C
100
AcDbEntity
8
0
62
0
6
ByLayer
370
-1
48
1.0
60
0
100
AcDbLine
10
-0.5
20
-0.5
30
0.0
11
-0.5
21
-0.5
31
0.0
39
0.0
210
0.0
220
0.0
230
1.0
0
ENDBLK
5
3D
330
3C
100
AcDbEntity
8
0
100
AcDbBlockEnd
0
BLOCK
5
4E
330
4C
100
AcDbEntity
67
1
8
0
100
AcDbBlockBegin
2
*Paper_Space
70
0
10
0.0
20
0.0
30
0.0
3
*Paper_Space
4

0
ENDBLK
5
4D
330
4C
100
AcDbEntity
8
0
100
AcDbBlockEnd
0
ENDSEC
0
SECTION
2
ENTITIES
0
LWPOLYLINE
5
43
330
1B
100
AcDbEntity
67
0
8
Layer 5
62
256
6
Continuous
370
-1
48
1.0
60
0
100
AcDbPolyline
90
2
70
0
38
0.0
39
0.0
10
1965.21797038883
20
178.940020559526
40
0.0
41
0.0
42
0.0
10
1963.77752324973
20
-410.586448683967
40
0.0
41
0.0
42
0.0
210
0.0
220
0.0
230
1.0
0
LWPOLYLINE
5
44
330
1B
100
AcDbEntity
67
0
8
Layer 0
62
256
6
Continuous
370
-1
48
1.0
60
0
100
AcDbPolyline
90
2
70
0
38
0.0
39
0.0
10
1959.06005538785
20
-431.653837106878
40
0.0
41
0.0
42
0.0
10
1948.88584540142
20
-431.767947226383
40
0.0
41
0.0
42
0.0
210
0.0
220
0.0
230
1.0
0
LWPOLYLINE
5
45
330
1B
100
AcDbEntity
67
0
8
Layer 6
62
256
6
Continuous
370
-1
48
1.0
60
0
100
AcDbPolyline
90
3
70
0
38
0.0
39
0.0
10
-487.598093570443
20
-1976.01160589709
40
0.0
41
0.0
42
0.0
10
-797.292068029435
20
-1978.1182181545
40
0.0
41
0.0
42
0.0
10
-1088.97047840616
20
-1976.22804626025
40
0.0
41
0.0
42
0.0
210
0.0
220
0.0
230
1.0
0
LWPOLYLINE
5
46
330
1B
100
AcDbEntity
67
0
8
Layer 1
62
256
6
Continuous
370
-1
48
1.0
60
0
100
AcDbPolyline
90
3
70
0
38
0.0
39
0.0
10
1963.77752324973
20
-410.586448683967
40
0.0
41
0.0
42
0.0
10
-492.835819496404
20
-410.586448683966
40
0.0
41
0.0
42
0.0
10
-487.598093570443
20
-1976.01160589709
40
0.0
41
0.0
42
0.0
210
0.0
220
0.0
230
1.0
0
LWPOLYLINE
5
47
330
1B
100
AcDbEntity
67
0
8
Layer 2
62
256
6
Continuous
370
-1
48
1.0
60
0
100
AcDbPolyline
90
8
70
0
38
0.0
39
0.0
10
-1088.97047840616
20
-1976.22804626025
40
0.0
41
0.0
42
0.0
10
-1082.76025144997
20
-1086.10949797418
40
0.0
41
0.0
42
0.0
10
-1082.67868193102
20
-284.539156761347
40
0.0
41
0.0
42
0.0
10
-1072.05694375645
20
193.342918339571
40
0.0
41
0.0
42
0.0
10
-403.434549670338
20
189.262881250309
40
0.0
41
0.0
42
0.0
10
602.178678301766
20
181.858255741462
40
0.0
41
0.0
42
0.0
10
1339.93670651294
20
183.173037252258
40
0.0
41
0.0
42
0.0
10
1965.21797038883
20
178.940020559526
40
0.0
41
0.0
42
0.0
210
0.0
220
0.0
230
1.0
0
LWPOLYLINE
5
48
330
1B
100
AcDbEntity
67
0
8
Layer 3
62
256
6
Continuous
370
-1
48
1.0
60
0
100
AcDbPolyline
90
4
70
1
38
0.0
39
0.0
10
-519.685510402036
20
-1352.18515972708
40
0.0
41
0.0
42
0.0
10
-999.684852343231
20
-1353.18484616677
40
0.0
41
0.0
42
0.0
10
-1002.576746926
20
-488.869951522788
40
0.0
41
0.0
42
0.0
10
-522.586288192053
20
-485.215296819612
40
0.0
41
0.0
42
0.0
210
0.0
220
0.0
230
1.0
0
LWPOLYLINE
5
49
330
1B
100
AcDbEntity
67
0
8
Layer 3
62
256
6
Continuous
370
-1
48
1.0
60
0
100
AcDbPolyline
90
4
70
1
38
0.0
39
0.0
10
11.7556062768893
20
-318.492953567767
40
0.0
41
0.0
42
0.0
10
777.439866442166
20
-315.636130900156
40
0.0
41
0.0
42
0.0
10
775.149914204797
20
164.358666127412
40
0.0
41
0.0
42
0.0
10
10.0777902003307
20
161.504127383541
40
0.0
41
0.0
42
0.0
210
0.0
220
0.0
230
1.0
0
LWPOLYLINE
5
4A
330
1B
100
AcDbEntity
67
0
8
Frames
62
256
6
Continuous
370
-1
48
1.0
60
0
100
AcDbPolyline
90
4
70
1
38
0.0
39
0.0
10
-1163.97047952375
20
-2053.11821927208
40
0.0
41
0.0
42
0.0
10
2040.21797150642
20
-2053.11821927208
40
0.0
41
0.0
42
0.0
10
2040.21797150642
20
268.342919457158
40
0.0
41
0.0
42
0.0
10
-1163.97047952375
20
268.342919457158
40
0.0
41
0.0
42
0.0
210
0.0
220
0.0
230
1.0
0
TEXT
5
4B
330
1B
100
AcDbEntity
67
0
8
Frames
62
256
6
Continuous
370
-1
48
1.0
60
0
100
AcDbText
1
Horizontal Plane 1
10
-1163.97047952375
20
268.342919457158
30
0.0
40
25.000000372529
41
1.0
50
0.0
51
0.0
7
Standard
11
-1163.97047952375
21
268.342919457158
31
0.0
210
0.0
220
0.0
230
1.0
71
0
72
0
100
AcDbText
73
0
0
VIEWPORT
5
50
330
4C
100
AcDbEntity
67
1
8
0
62
256
6
ByLayer
370
-1
48
1.0
60
0
100
AcDbViewport
10
0.0
20
0.0
30
0.0
40
297.0
41
210.0
68
1
69
1
12
50.0
22
100.0
13
0.0
23
0.0
14
10.0
24
10.0
15
10.0
25
10.0
16
0.0
26
0.0
36
1.0
17
0.0
27
0.0
37
0.0
42
50.0
43
0.0
44
0.0
45
250.0
50
0.0
51
0.0
72
1000
90
819232
110
0.0
120
0.0
130
0.0
111
1.0
121
0.0
131
0.0
112
0.0
122
1.0
132
0.0
0
ENDSEC
0
SECTION
2
OBJECTS
0
DICTIONARY
5
55
330
0
100
AcDbDictionary
280
0
281
1
3
ACAD_GROUP
350
11
3
ACAD_LAYOUT
350
4F
3
ACAD_MLINESTYLE
350
A
3
ACAD_IMAGE_DICT
350
D
3
ACAD_IMAGE_VARS
350
20
0
DICTIONARY
5
11
330
55
100
AcDbDictionary
280
0
281
1
0
DICTIONARY
5
4F
330
55
100
AcDbDictionary
280
0
281
1
3
Model
350
1F
3
Layout1
350
51
0
DICTIONARY
5
A
330
55
100
AcDbDictionary
280
0
281
1
3
Standard
350
1A
0
DICTIONARY
5
D
330
55
100
AcDbDictionary
280
0
281
1
0
LAYOUT
5
1F
330
4F
100
AcDbPlotSettings
1

2
none_device
4
ISO_A4_(210.00_x_297.00_MM)
6

40
7.5
41
20.0
42
7.5
43
20.0
44
210.0
45
297.0
46
0.0
47
0.0
48
0.0
49
0.0
140
0.0
141
0.0
142
1.0
143
1.0
70
11952
72
1
73
1
74
1
7

75
0
76
0
77
2
78
300
147
1.0
148
0.0
149
0.0
100
AcDbLayout
1
Model
71
0
10
-20.0
20
-7.5
11
277.0
21
202.5
12
0.0
22
0.0
32
0.0
14
25.7
24
19.5
34
0.0
15
231.3
25
175.5
35
0.0
146
0.0
13
0.0
23
0.0
33
0.0
16
1.0
26
0.0
36
0.0
17
0.0
27
1.0
37
0.0
76
0
330
1B
0
LAYOUT
5
51
330
4F
100
AcDbPlotSettings
1

2
none_device
4
ISO_A4_(210.00_x_297.00_MM)
6

40
7.5
41
20.0
42
7.5
43
20.0
44
210.0
45
297.0
46
0.0
47
0.0
48
0.0
49
0.0
140
0.0
141
0.0
142
1.0
143
1.0
70
688
72
1
73
1
74
1
7

75
0
76
0
77
2
78
300
147
1.0
148
0.0
149
0.0
100
AcDbLayout
1
Layout1
71
1
10
-20.0
20
-7.5
11
277.0
21
202.5
12
0.0
22
0.0
32
0.0
14
25.7
24
19.5
34
0.0
15
231.3
25
175.5
35
0.0
146
0.0
13
0.0
23
0.0
33
0.0
16
1.0
26
0.0
36
0.0
17
0.0
27
1.0
37
0.0
76
0
330
4C
0
MLINESTYLE
5
1A
330
A
100
AcDbMlineStyle
2
Standard
70
0
3

62
256
51
90.0
52
90.0
71
2
49
0.5
62
256
6
ByLayer
49
-0.5
62
256
6
ByLayer
0
RASTERVARIABLES
5
20
330
D
100
AcDbRasterVariables
90
0
70
1
71
1
72
0
0
ENDSEC
0
EOF
