999
DXF file generated by Hxct.Dxf https://github.com/haplokuon/Hxct.Dxf, Copyright(C) 2009-2020 Daniel Carvajal, Licensed under LGPL
0
SECTION
2
HEADER
9
$ACADVER
1
AC1024
9
$DWGCODEPAGE
3
ANSI_1252
9
$LASTSAVEDBY
1
somebody
9
$HANDSEED
5
5E
9
$ANGBASE
50
0.0
9
$ANGDIR
70
0
9
$ATTMODE
70
1
9
$AUNITS
70
0
9
$AUPREC
70
0
9
$CECOLOR
62
256
9
$CELTSCALE
40
1.0
9
$CELTYPE
6
ByLayer
9
$CELWEIGHT
370
-1
9
$CLAYER
8
0
9
$CMLJUST
70
0
9
$CMLSCALE
40
20.0
9
$CMLSTYLE
2
Standard
9
$DIMSTYLE
2
Standard
9
$TEXTSIZE
40
2.5
9
$TEXTSTYLE
7
Standard
9
$LUNITS
70
2
9
$LUPREC
70
4
9
$MIRRTEXT
70
0
9
$EXTNAMES
290
1
9
$INSBASE
10
0.0
20
0.0
30
0.0
9
$INSUNITS
70
4
9
$LTSCALE
40
1.0
9
$LWDISPLAY
290
0
9
$PDMODE
70
3
9
$PDSIZE
40
0.03
9
$PLINEGEN
70
0
9
$PSLTSCALE
70
1
9
$TDCREATE
40
2460874.74599907
9
$TDUCREATE
40
2460874.62099907
9
$TDUPDATE
40
2460874.74599907
9
$TDUUPDATE
40
2460874.62099907
9
$TDINDWG
40
0.0
9
$UCSORG
10
0.0
20
0.0
30
0.0
9
$UCSXDIR
10
1.0
20
0.0
30
0.0
9
$UCSYDIR
10
0.0
20
1.0
30
0.0
9
$DIMADEC
70
3
9
$DIMALT
70
0
9
$DIMALTD
70
2
9
$DIMALTF
40
25.4
9
$DIMALTRND
40
0.0
9
$DIMALTTD
70
2
9
$DIMALTTZ
70
0
9
$DIMALTU
70
2
9
$DIMALTZ
70
0
9
$DIMAPOST
1

9
$DIMATFIT
70
3
9
$DIMAUNIT
70
0
9
$DIMASZ
40
0.18
9
$DIMAZIN
70
0
9
$DIMSAH
70
0
9
$DIMBLK
1

9
$DIMLDRBLK
1

9
$DIMCEN
40
0.0
9
$DIMCLRD
70
0
9
$DIMCLRE
70
0
9
$DIMCLRT
70
0
9
$DIMDEC
70
1
9
$DIMDLE
40
0.0
9
$DIMDLI
40
0.38
9
$DIMDSEP
70
46
9
$DIMEXE
40
0.18
9
$DIMEXO
40
0.0625
9
$DIMFXLON
70
0
9
$DIMFXL
40
1.0
9
$DIMGAP
40
0.09
9
$DIMJUST
70
0
9
$DIMLFAC
40
1.0
9
$DIMLUNIT
70
2
9
$DIMLWD
70
-2
9
$DIMLWE
70
-2
9
$DIMPOST
1

9
$DIMRND
40
0.0
9
$DIMSCALE
40
1.0
9
$DIMSD1
70
0
9
$DIMSD2
70
0
9
$DIMSE1
70
0
9
$DIMSE2
70
0
9
$DIMSOXD
70
0
9
$DIMTAD
70
0
9
$DIMTDEC
70
4
9
$DIMTFAC
40
1.0
9
$DIMTIH
70
0
9
$DIMTIX
70
0
9
$DIMTM
40
0.0
9
$DIMTMOVE
70
0
9
$DIMTOFL
70
0
9
$DIMTOH
70
0
9
$DIMTOL
70
0
9
$DIMLIM
70
0
9
$DIMTOLJ
70
1
9
$DIMTP
40
0.0
9
$DIMTXT
40
0.18
9
$DIMTXTDIRECTION
70
0
9
$DIMTZIN
70
0
9
$DIMZIN
70
0
9
$DIMFRAC
70
0
9
$DIMLTYPE
6
ByBlock
9
$DIMLTEX1
6
ByBlock
9
$DIMLTEX2
6
ByBlock
0
ENDSEC
0
SECTION
2
CLASSES
0
CLASS
1
RASTERVARIABLES
2
AcDbRasterVariables
3
ISM
90
0
91
1
280
0
281
0
0
ENDSEC
0
SECTION
2
TABLES
0
TABLE
2
APPID
5
4
330
0
100
AcDbSymbolTable
0
APPID
5
18
330
4
100
AcDbSymbolTableRecord
100
AcDbRegAppTableRecord
2
ACAD
70
0
0
APPID
5
21
330
4
100
AcDbSymbolTableRecord
100
AcDbRegAppTableRecord
2
PE_URL
70
0
0
APPID
5
5A
330
4
100
AcDbSymbolTableRecord
100
AcDbRegAppTableRecord
2
AcCmTransparency
70
0
0
APPID
5
5B
330
4
100
AcDbSymbolTableRecord
100
AcDbRegAppTableRecord
2
GradientColor1ACI
70
0
0
APPID
5
5C
330
4
100
AcDbSymbolTableRecord
100
AcDbRegAppTableRecord
2
GradientColor2ACI
70
0
0
ENDTAB
0
TABLE
2
VPORT
5
1
330
0
100
AcDbSymbolTable
0
VPORT
5
2
330
1
100
AcDbSymbolTableRecord
100
AcDbViewportTableRecord
2
*Active
70
0
10
0.0
20
0.0
11
1.0
21
1.0
12
2569.62300196337
22
-1503.31716000778
13
0.0
23
0.0
14
0.5
24
0.5
15
10.0
25
10.0
16
0.0
26
0.0
36
1.0
17
0.0
27
0.0
37
0.0
40
2300.45913495981
41
0.88555852742084
75
0
76
1
0
ENDTAB
0
TABLE
2
LTYPE
5
6
330
0
100
AcDbSymbolTable
0
LTYPE
5
14
330
6
100
AcDbSymbolTableRecord
100
AcDbLinetypeTableRecord
2
Continuous
70
0
3
Solid line
72
65
73
0
40
0.0
0
LTYPE
5
15
330
6
100
AcDbSymbolTableRecord
100
AcDbLinetypeTableRecord
2
ByLayer
70
0
3

72
65
73
0
40
0.0
0
LTYPE
5
16
330
6
100
AcDbSymbolTableRecord
100
AcDbLinetypeTableRecord
2
ByBlock
70
0
3

72
65
73
0
40
0.0
0
LTYPE
5
22
330
6
100
AcDbSymbolTableRecord
100
AcDbLinetypeTableRecord
2
DOTTED
70
0
3
. . . . . .
72
65
73
2
40
50.0000007450581
49
10.0000001490116
74
0
49
-40.0000005960464
74
0
0
LTYPE
5
23
330
6
100
AcDbSymbolTableRecord
100
AcDbLinetypeTableRecord
2
DASHED
70
0
3
- - - - - -
72
65
73
2
40
200.0
49
100.0
74
0
49
-100.0
74
0
0
LTYPE
5
24
330
6
100
AcDbSymbolTableRecord
100
AcDbLinetypeTableRecord
2
DASHDOT
70
0
3
- . - . - . - . - . -
72
65
73
4
40
200.0
49
100.0
74
0
49
-50.0
74
0
49
0.0
74
0
49
-50.0
74
0
0
ENDTAB
0
TABLE
2
LAYER
5
5
330
0
100
AcDbSymbolTable
0
LAYER
5
13
330
5
100
AcDbSymbolTableRecord
100
AcDbLayerTableRecord
2
0
70
0
62
7
6
Continuous
290
1
370
-3
390
0
0
LAYER
5
25
330
5
100
AcDbSymbolTableRecord
100
AcDbLayerTableRecord
2
Control Points
70
0
62
8
6
Continuous
290
1
370
-3
390
0
0
LAYER
5
26
330
5
100
AcDbSymbolTableRecord
100
AcDbLayerTableRecord
2
Layer 0
70
0
62
8
6
Continuous
290
1
370
-3
390
0
0
LAYER
5
27
330
5
100
AcDbSymbolTableRecord
100
AcDbLayerTableRecord
2
Layer 1
70
0
62
72
6
Continuous
290
1
370
-3
390
0
0
LAYER
5
28
330
5
100
AcDbSymbolTableRecord
100
AcDbLayerTableRecord
2
Layer 2
70
0
62
12
6
Continuous
290
1
370
-3
390
0
0
LAYER
5
29
330
5
100
AcDbSymbolTableRecord
100
AcDbLayerTableRecord
2
Layer 3
70
0
62
152
6
Continuous
290
1
370
-3
390
0
0
LAYER
5
2A
330
5
100
AcDbSymbolTableRecord
100
AcDbLayerTableRecord
2
Layer 4
70
0
62
40
6
Continuous
290
1
370
-3
390
0
0
LAYER
5
2B
330
5
100
AcDbSymbolTableRecord
100
AcDbLayerTableRecord
2
Layer 5
70
0
62
7
6
Continuous
290
1
370
-3
390
0
0
LAYER
5
2C
330
5
100
AcDbSymbolTableRecord
100
AcDbLayerTableRecord
2
Layer 6
70
0
62
30
6
Continuous
290
1
370
-3
390
0
0
LAYER
5
2D
330
5
100
AcDbSymbolTableRecord
100
AcDbLayerTableRecord
2
Layer 7
70
0
62
6
6
Continuous
290
1
370
-3
390
0
0
LAYER
5
2E
330
5
100
AcDbSymbolTableRecord
100
AcDbLayerTableRecord
2
Layer 8
70
0
62
202
6
Continuous
290
1
370
-3
390
0
0
LAYER
5
2F
330
5
100
AcDbSymbolTableRecord
100
AcDbLayerTableRecord
2
Layer 9
70
0
62
34
6
Continuous
290
1
370
-3
390
0
0
LAYER
5
30
330
5
100
AcDbSymbolTableRecord
100
AcDbLayerTableRecord
2
Frames
70
0
62
253
6
Continuous
290
1
370
-3
390
0
0
LAYER
5
31
330
5
100
AcDbSymbolTableRecord
100
AcDbLayerTableRecord
2
POINT-NAME
70
0
62
7
6
Continuous
290
1
370
-3
390
0
0
ENDTAB
0
TABLE
2
STYLE
5
7
330
0
100
AcDbSymbolTable
0
STYLE
5
17
330
7
100
AcDbSymbolTableRecord
100
AcDbTextStyleTableRecord
2
Standard
3
simplex.shx
70
0
71
0
40
0.0
41
1.0
42
0.0
50
0.0
0
ENDTAB
0
TABLE
2
DIMSTYLE
5
9
330
0
100
AcDbSymbolTable
100
AcDbDimStyleTable
0
DIMSTYLE
105
19
330
9
100
AcDbSymbolTableRecord
100
AcDbDimStyleTableRecord
2
Standard
3

4

40
1.0
41
0.18
42
0.0625
43
0.38
44
0.18
45
0.0
46
0.0
47
0.0
48
0.0
49
1.0
70
0
71
0
72
0
73
0
74
0
75
0
76
0
77
0
78
0
79
0
140
0.18
141
0.0
143
25.4
144
1.0
146
1.0
147
0.09
148
0.0
170
0
171
2
172
0
174
0
175
0
176
0
177
0
178
0
179
3
271
1
272
4
273
2
274
2
275
0
276
0
277
2
278
46
279
0
280
0
281
0
282
0
283
1
284
0
285
0
286
0
289
3
290
0
294
0
340
17
173
0
345
16
346
16
347
16
371
-2
372
-2
0
ENDTAB
0
TABLE
2
VIEW
5
3
330
0
100
AcDbSymbolTable
0
ENDTAB
0
TABLE
2
UCS
5
B
330
0
100
AcDbSymbolTable
0
ENDTAB
0
TABLE
2
BLOCK_RECORD
5
C
330
0
100
AcDbSymbolTable
0
BLOCK_RECORD
5
1B
330
C
100
AcDbSymbolTableRecord
100
AcDbBlockTableRecord
2
*Model_Space
340
1F
0
BLOCK_RECORD
5
32
330
C
100
AcDbSymbolTableRecord
100
AcDbBlockTableRecord
2
POINT
340
0
70
0
280
1
281
0
1001
ACAD
1000
DesignCenter Data
1002
{
1070
1
1070
0
1002
}
0
BLOCK_RECORD
5
37
330
C
100
AcDbSymbolTableRecord
100
AcDbBlockTableRecord
2
ARUCO-POINT
340
0
70
0
280
1
281
0
1001
ACAD
1000
DesignCenter Data
1002
{
1070
1
1070
0
1002
}
0
BLOCK_RECORD
5
3F
330
C
100
AcDbSymbolTableRecord
100
AcDbBlockTableRecord
2
CONTROL-POINT
340
0
70
0
280
1
281
0
1001
ACAD
1000
DesignCenter Data
1002
{
1070
1
1070
0
1002
}
0
BLOCK_RECORD
5
54
330
C
100
AcDbSymbolTableRecord
100
AcDbBlockTableRecord
2
*Paper_Space
340
59
0
ENDTAB
0
ENDSEC
0
SECTION
2
BLOCKS
0
BLOCK
5
1D
330
1B
100
AcDbEntity
67
0
8
0
100
AcDbBlockBegin
2
*Model_Space
70
0
10
0.0
20
0.0
30
0.0
3
*Model_Space
4

0
ENDBLK
5
1C
330
1B
100
AcDbEntity
8
0
100
AcDbBlockEnd
0
BLOCK
5
34
330
32
100
AcDbEntity
8
0
100
AcDbBlockBegin
2
POINT
70
0
10
0.0
20
0.0
30
0.0
3
POINT
4

0
LINE
5
35
330
32
100
AcDbEntity
8
0
62
0
6
ByLayer
370
-1
48
1.0
60
0
100
AcDbLine
10
-0.5
20
-0.5
30
0.0
11
0.5
21
0.5
31
0.0
39
0.0
210
0.0
220
0.0
230
1.0
0
LINE
5
36
330
32
100
AcDbEntity
8
0
62
0
6
ByLayer
370
-1
48
1.0
60
0
100
AcDbLine
10
-0.5
20
0.5
30
0.0
11
0.5
21
-0.5
31
0.0
39
0.0
210
0.0
220
0.0
230
1.0
0
ENDBLK
5
33
330
32
100
AcDbEntity
8
0
100
AcDbBlockEnd
0
BLOCK
5
39
330
37
100
AcDbEntity
8
0
100
AcDbBlockBegin
2
ARUCO-POINT
70
0
10
0.0
20
0.0
30
0.0
3
ARUCO-POINT
4

0
LINE
5
3A
330
37
100
AcDbEntity
8
0
62
0
6
ByLayer
370
-1
48
1.0
60
0
100
AcDbLine
10
-0.5
20
-0.5
30
0.0
11
-0.5
21
0.5
31
0.0
39
0.0
210
0.0
220
0.0
230
1.0
0
LINE
5
3B
330
37
100
AcDbEntity
8
0
62
0
6
ByLayer
370
-1
48
1.0
60
0
100
AcDbLine
10
-0.5
20
0.5
30
0.0
11
0.5
21
0.5
31
0.0
39
0.0
210
0.0
220
0.0
230
1.0
0
LINE
5
3C
330
37
100
AcDbEntity
8
0
62
0
6
ByLayer
370
-1
48
1.0
60
0
100
AcDbLine
10
0.5
20
0.5
30
0.0
11
0.5
21
-0.5
31
0.0
39
0.0
210
0.0
220
0.0
230
1.0
0
LINE
5
3D
330
37
100
AcDbEntity
8
0
62
0
6
ByLayer
370
-1
48
1.0
60
0
100
AcDbLine
10
0.5
20
-0.5
30
0.0
11
-0.5
21
-0.5
31
0.0
39
0.0
210
0.0
220
0.0
230
1.0
0
LINE
5
3E
330
37
100
AcDbEntity
8
0
62
0
6
ByLayer
370
-1
48
1.0
60
0
100
AcDbLine
10
-0.5
20
-0.5
30
0.0
11
-0.5
21
-0.5
31
0.0
39
0.0
210
0.0
220
0.0
230
1.0
0
ENDBLK
5
38
330
37
100
AcDbEntity
8
0
100
AcDbBlockEnd
0
BLOCK
5
41
330
3F
100
AcDbEntity
8
0
100
AcDbBlockBegin
2
CONTROL-POINT
70
0
10
0.0
20
0.0
30
0.0
3
CONTROL-POINT
4

0
LINE
5
42
330
3F
100
AcDbEntity
8
0
62
0
6
ByLayer
370
-1
48
1.0
60
0
100
AcDbLine
10
-0.5
20
-0.5
30
0.0
11
0.5
21
-0.5
31
0.0
39
0.0
210
0.0
220
0.0
230
1.0
0
LINE
5
43
330
3F
100
AcDbEntity
8
0
62
0
6
ByLayer
370
-1
48
1.0
60
0
100
AcDbLine
10
0.5
20
-0.5
30
0.0
11
0.0
21
0.5
31
0.0
39
0.0
210
0.0
220
0.0
230
1.0
0
LINE
5
44
330
3F
100
AcDbEntity
8
0
62
0
6
ByLayer
370
-1
48
1.0
60
0
100
AcDbLine
10
0.0
20
0.5
30
0.0
11
-0.5
21
-0.5
31
0.0
39
0.0
210
0.0
220
0.0
230
1.0
0
LINE
5
45
330
3F
100
AcDbEntity
8
0
62
0
6
ByLayer
370
-1
48
1.0
60
0
100
AcDbLine
10
-0.5
20
-0.5
30
0.0
11
-0.5
21
-0.5
31
0.0
39
0.0
210
0.0
220
0.0
230
1.0
0
ENDBLK
5
40
330
3F
100
AcDbEntity
8
0
100
AcDbBlockEnd
0
BLOCK
5
56
330
54
100
AcDbEntity
67
1
8
0
100
AcDbBlockBegin
2
*Paper_Space
70
0
10
0.0
20
0.0
30
0.0
3
*Paper_Space
4

0
ENDBLK
5
55
330
54
100
AcDbEntity
8
0
100
AcDbBlockEnd
0
ENDSEC
0
SECTION
2
ENTITIES
0
LINE
5
46
330
1B
100
AcDbEntity
67
0
8
Layer 0
62
256
6
Continuous
370
-1
48
1.0
60
0
100
AcDbLine
10
3413.2186028192
20
-2474.01233775759
30
0.0
11
1766.79892687752
21
-2478.54672637009
31
0.0
39
0.0
210
0.0
220
0.0
230
1.0
0
LINE
5
47
330
1B
100
AcDbEntity
67
0
8
Layer 0
62
256
6
Continuous
370
-1
48
1.0
60
0
100
AcDbLine
10
1766.79892687752
20
-2478.54672637009
30
0.0
11
1750.174716885
21
-2467.57255540027
31
0.0
39
0.0
210
0.0
220
0.0
230
1.0
0
LINE
5
48
330
1B
100
AcDbEntity
67
0
8
Layer 0
62
256
6
Continuous
370
-1
48
1.0
60
0
100
AcDbLine
10
1743.36996139486
20
-546.315601718738
30
0.0
11
1726.02740110755
21
-528.087593645458
31
0.0
39
0.0
210
0.0
220
0.0
230
1.0
0
LINE
5
49
330
1B
100
AcDbEntity
67
0
8
Layer 1
62
256
6
Continuous
370
-1
48
1.0
60
0
100
AcDbLine
10
3412.66778682955
20
-2274.01309625467
30
0.0
11
1766.24811088787
21
-2278.54748486717
31
0.0
39
0.0
210
0.0
220
0.0
230
1.0
0
LINE
5
4A
330
1B
100
AcDbEntity
67
0
8
Layer 2
62
256
6
Continuous
370
-1
48
1.0
60
0
100
AcDbLine
10
3412.1169708399
20
-2074.01385475174
30
0.0
11
1765.69729489822
21
-2078.54824336424
31
0.0
39
0.0
210
0.0
220
0.0
230
1.0
0
LINE
5
4B
330
1B
100
AcDbEntity
67
0
8
Layer 3
62
256
6
Continuous
370
-1
48
1.0
60
0
100
AcDbLine
10
3411.56615485025
20
-1874.01461324881
30
0.0
11
1765.14647890857
21
-1878.54900186132
31
0.0
39
0.0
210
0.0
220
0.0
230
1.0
0
LINE
5
4C
330
1B
100
AcDbEntity
67
0
8
Layer 4
62
256
6
Continuous
370
-1
48
1.0
60
0
100
AcDbLine
10
3411.01533886061
20
-1674.01537174589
30
0.0
11
1764.59566291892
21
-1678.54976035839
31
0.0
39
0.0
210
0.0
220
0.0
230
1.0
0
LINE
5
4D
330
1B
100
AcDbEntity
67
0
8
Layer 5
62
256
6
Continuous
370
-1
48
1.0
60
0
100
AcDbLine
10
3410.46452287096
20
-1474.01613024296
30
0.0
11
1764.04484692928
21
-1478.55051885546
31
0.0
39
0.0
210
0.0
220
0.0
230
1.0
0
LINE
5
4E
330
1B
100
AcDbEntity
67
0
8
Layer 6
62
256
6
Continuous
370
-1
48
1.0
60
0
100
AcDbLine
10
3409.91370688131
20
-1274.01688874004
30
0.0
11
1763.49403093963
21
-1278.55127735254
31
0.0
39
0.0
210
0.0
220
0.0
230
1.0
0
LINE
5
4F
330
1B
100
AcDbEntity
67
0
8
Layer 7
62
256
6
Continuous
370
-1
48
1.0
60
0
100
AcDbLine
10
3409.36289089166
20
-1074.01764723711
30
0.0
11
1762.94321494998
21
-1078.55203584961
31
0.0
39
0.0
210
0.0
220
0.0
230
1.0
0
LINE
5
50
330
1B
100
AcDbEntity
67
0
8
Layer 8
62
256
6
Continuous
370
-1
48
1.0
60
0
100
AcDbLine
10
3408.81207490202
20
-874.018405734185
30
0.0
11
1762.39239896033
21
-878.552794346687
31
0.0
39
0.0
210
0.0
220
0.0
230
1.0
0
LINE
5
51
330
1B
100
AcDbEntity
67
0
8
Layer 9
62
256
6
Continuous
370
-1
48
1.0
60
0
100
AcDbLine
10
3408.26125891237
20
-674.019164231259
30
0.0
11
1761.84158297068
21
-678.553552843761
31
0.0
39
0.0
210
0.0
220
0.0
230
1.0
0
LWPOLYLINE
5
52
330
1B
100
AcDbEntity
67
0
8
Frames
62
256
6
Continuous
370
-1
48
1.0
60
0
100
AcDbPolyline
90
4
70
1
38
0.0
39
0.0
10
1651.02739998996
20
-2553.54672748768
40
0.0
41
0.0
42
0.0
10
3488.21860393679
20
-2553.54672748768
40
0.0
41
0.0
42
0.0
10
3488.21860393679
20
-453.087592527871
40
0.0
41
0.0
42
0.0
10
1651.02739998996
20
-453.087592527871
40
0.0
41
0.0
42
0.0
210
0.0
220
0.0
230
1.0
0
TEXT
5
53
330
1B
100
AcDbEntity
67
0
8
Frames
62
256
6
Continuous
370
-1
48
1.0
60
0
100
AcDbText
1
Horizontal Plane 1
10
1651.02739998996
20
-453.087592527871
30
0.0
40
25.000000372529
41
1.0
50
0.0
51
0.0
7
Standard
11
1651.02739998996
21
-453.087592527871
31
0.0
210
0.0
220
0.0
230
1.0
71
0
72
0
100
AcDbText
73
0
0
VIEWPORT
5
58
330
54
100
AcDbEntity
67
1
8
0
62
256
6
ByLayer
370
-1
48
1.0
60
0
100
AcDbViewport
10
0.0
20
0.0
30
0.0
40
297.0
41
210.0
68
1
69
1
12
50.0
22
100.0
13
0.0
23
0.0
14
10.0
24
10.0
15
10.0
25
10.0
16
0.0
26
0.0
36
1.0
17
0.0
27
0.0
37
0.0
42
50.0
43
0.0
44
0.0
45
250.0
50
0.0
51
0.0
72
1000
90
819232
110
0.0
120
0.0
130
0.0
111
1.0
121
0.0
131
0.0
112
0.0
122
1.0
132
0.0
0
ENDSEC
0
SECTION
2
OBJECTS
0
DICTIONARY
5
5D
330
0
100
AcDbDictionary
280
0
281
1
3
ACAD_GROUP
350
11
3
ACAD_LAYOUT
350
57
3
ACAD_MLINESTYLE
350
A
3
ACAD_IMAGE_DICT
350
D
3
ACAD_IMAGE_VARS
350
20
0
DICTIONARY
5
11
330
5D
100
AcDbDictionary
280
0
281
1
0
DICTIONARY
5
57
330
5D
100
AcDbDictionary
280
0
281
1
3
Model
350
1F
3
Layout1
350
59
0
DICTIONARY
5
A
330
5D
100
AcDbDictionary
280
0
281
1
3
Standard
350
1A
0
DICTIONARY
5
D
330
5D
100
AcDbDictionary
280
0
281
1
0
LAYOUT
5
1F
330
57
100
AcDbPlotSettings
1

2
none_device
4
ISO_A4_(210.00_x_297.00_MM)
6

40
7.5
41
20.0
42
7.5
43
20.0
44
210.0
45
297.0
46
0.0
47
0.0
48
0.0
49
0.0
140
0.0
141
0.0
142
1.0
143
1.0
70
11952
72
1
73
1
74
1
7

75
0
76
0
77
2
78
300
147
1.0
148
0.0
149
0.0
100
AcDbLayout
1
Model
71
0
10
-20.0
20
-7.5
11
277.0
21
202.5
12
0.0
22
0.0
32
0.0
14
25.7
24
19.5
34
0.0
15
231.3
25
175.5
35
0.0
146
0.0
13
0.0
23
0.0
33
0.0
16
1.0
26
0.0
36
0.0
17
0.0
27
1.0
37
0.0
76
0
330
1B
0
LAYOUT
5
59
330
57
100
AcDbPlotSettings
1

2
none_device
4
ISO_A4_(210.00_x_297.00_MM)
6

40
7.5
41
20.0
42
7.5
43
20.0
44
210.0
45
297.0
46
0.0
47
0.0
48
0.0
49
0.0
140
0.0
141
0.0
142
1.0
143
1.0
70
688
72
1
73
1
74
1
7

75
0
76
0
77
2
78
300
147
1.0
148
0.0
149
0.0
100
AcDbLayout
1
Layout1
71
1
10
-20.0
20
-7.5
11
277.0
21
202.5
12
0.0
22
0.0
32
0.0
14
25.7
24
19.5
34
0.0
15
231.3
25
175.5
35
0.0
146
0.0
13
0.0
23
0.0
33
0.0
16
1.0
26
0.0
36
0.0
17
0.0
27
1.0
37
0.0
76
0
330
54
0
MLINESTYLE
5
1A
330
A
100
AcDbMlineStyle
2
Standard
70
0
3

62
256
51
90.0
52
90.0
71
2
49
0.5
62
256
6
ByLayer
49
-0.5
62
256
6
ByLayer
0
RASTERVARIABLES
5
20
330
D
100
AcDbRasterVariables
90
0
70
1
71
1
72
0
0
ENDSEC
0
EOF
